<svg xmlns="http://www.w3.org/2000/svg" viewBox="0 0 24 24">
  <path fill="#fff" d="M 13.00,16.00 13.00,16.00 13.00,16.00 13.00,16.00
           M 6.00,20.00
           C 5.45,20.00 4.98,19.80 4.59,19.41
             4.20,19.02 4.00,18.55 4.00,18.00
             4.00,18.00 4.00,15.00 4.00,15.00
             4.00,15.00 6.00,15.00 6.00,15.00
             6.00,15.00 6.00,18.00 6.00,18.00
             6.00,18.00 18.00,18.00 18.00,18.00
             18.00,18.00 18.00,15.00 18.00,15.00
             18.00,15.00 20.00,15.00 20.00,15.00
             20.00,15.00 20.00,18.00 20.00,18.00
             20.00,18.55 19.80,19.02 19.41,19.41
             19.02,19.80 18.55,20.00 18.00,20.00
             18.00,20.00 6.00,20.00 6.00,20.00 Z" />
</svg>
